<svg xmlns="http://www.w3.org/2000/svg" viewBox="0 0 1200 1200" width="1200" height="1200" role="img" aria-label="BestDeal3z">
<defs>
<pattern id="grid" width="60" height="60" patternUnits="userSpaceOnUse">
<path d="M60 0H0V60" fill="none" stroke="#141414" stroke-width="1"/>
</pattern>
<radialGradient id="glow" cx="50%" cy="42%" r="55%">
<stop offset="0%" stop-color="#e22718" stop-opacity="0.16"/>
<stop offset="100%" stop-color="#000000" stop-opacity="0"/>
</radialGradient>
</defs>
<rect width="1200" height="1200" fill="#000000"/>
<rect width="1200" height="1200" fill="url(#grid)"/>
<rect width="1200" height="1200" fill="url(#glow)"/>
<circle cx="600" cy="560" r="300" fill="none" stroke="#e22718" stroke-width="2" stroke-opacity="0.5"/>
<g color="#ffffff"><g stroke="currentColor" stroke-width="14" fill="none" stroke-linecap="round" stroke-linejoin="round">
<circle cx="600" cy="600" r="70"/>
<path d="M600 530v-40M600 670v40M530 600h-40M670 600h40"/>
<line x1="495" y1="495" x2="705" y2="705"/><line x1="705" y1="495" x2="495" y2="705"/>
<circle cx="430" cy="430" r="60"/><circle cx="770" cy="430" r="60"/>
<circle cx="430" cy="770" r="60"/><circle cx="770" cy="770" r="60"/></g></g>
<text x="80" y="110" fill="#7e7e7e" font-family="Inter,sans-serif" font-size="26" font-weight="700" letter-spacing="3">BESTDEAL3z</text>
<text x="1120" y="110" text-anchor="end" fill="#7e7e7e" font-family="Inter,sans-serif" font-size="24" font-weight="400" letter-spacing="2">ENGINEERED DEALS</text>
<text x="80" y="1010" fill="#ffffff" font-family="Inter,sans-serif" font-size="58" font-weight="700" letter-spacing="-1">BESTDEAL3Z</text>
<text x="1120" y="1010" text-anchor="end" fill="#3c3c3c" font-family="Inter,sans-serif" font-size="120" font-weight="700">01</text>
<g>
<rect x="80" y="1060" width="120" height="6" fill="#0066b1"/>
<rect x="200" y="1060" width="120" height="6" fill="#1c69d4"/>
<rect x="320" y="1060" width="120" height="6" fill="#e22718"/>
</g>
</svg>